<?xml version="1.0" encoding="UTF-8"?>
<svg id="Camada_1" xmlns="http://www.w3.org/2000/svg" xmlns:xlink="http://www.w3.org/1999/xlink" viewBox="0 0 640.88 207.34">
  <defs>
    <style>
      .cls-1, .cls-2 {
        fill: #fff;
      }

      .cls-2 {
        font-family: Roboto-Bold, Roboto;
        font-size: 116.58px;
        font-weight: 700;
      }

      .cls-3 {
        fill: url(#Gradiente_sem_nome_6-2);
      }

      .cls-4 {
        fill: url(#Gradiente_sem_nome_6);
      }
    </style>
    <linearGradient id="Gradiente_sem_nome_6" data-name="Gradiente sem nome 6" x1="597.18" y1="91.86" x2="422.76" y2="91.86" gradientUnits="userSpaceOnUse">
      <stop offset="0" stop-color="#f9b233"/>
      <stop offset="1" stop-color="#e94e1b"/>
    </linearGradient>
    <linearGradient id="Gradiente_sem_nome_6-2" data-name="Gradiente sem nome 6" x1="116.1" y1="-12.6" x2="226.1" y2="175.15" xlink:href="#Gradiente_sem_nome_6"/>
  </defs>
  <g>
    <path class="cls-1" d="M320.28,47.04c0-1.97.62-3.6,1.87-4.9,1.25-1.3,3.03-1.95,5.35-1.95s4.11.65,5.37,1.95c1.26,1.3,1.9,2.93,1.9,4.9s-.63,3.54-1.9,4.82c-1.26,1.28-3.06,1.92-5.37,1.92s-4.1-.64-5.35-1.92c-1.25-1.28-1.87-2.89-1.87-4.82ZM333.87,118.84h-12.8v-57h12.8v57Z"/>
    <path class="cls-1" d="M379.75,103.36c0-2.28-.94-4.02-2.82-5.21-1.88-1.19-5-2.25-9.35-3.16-4.36-.91-7.99-2.07-10.91-3.48-6.39-3.09-9.59-7.57-9.59-13.43,0-4.92,2.07-9.03,6.22-12.33,4.14-3.3,9.41-4.95,15.8-4.95,6.81,0,12.32,1.69,16.52,5.06,4.2,3.37,6.3,7.74,6.3,13.12h-12.8c0-2.46-.91-4.5-2.74-6.14-1.83-1.63-4.25-2.45-7.27-2.45-2.81,0-5.1.65-6.88,1.95-1.77,1.3-2.66,3.04-2.66,5.22,0,1.97.82,3.5,2.48,4.58,1.65,1.09,4.99,2.19,10.01,3.29,5.02,1.11,8.96,2.42,11.83,3.95,2.86,1.53,4.99,3.36,6.37,5.5,1.39,2.14,2.08,4.74,2.08,7.8,0,5.13-2.13,9.28-6.37,12.46-4.25,3.18-9.82,4.77-16.7,4.77-4.67,0-8.83-.84-12.49-2.53-3.65-1.69-6.5-4-8.53-6.95-2.04-2.95-3.06-6.13-3.06-9.54h12.43c.18,3.02,1.32,5.35,3.42,6.98,2.11,1.63,4.9,2.45,8.38,2.45s5.94-.64,7.69-1.92c1.76-1.28,2.63-2.96,2.63-5.03Z"/>
    <path class="cls-1" d="M426.9,109.68c3.2,0,5.85-.93,7.96-2.79s3.23-4.16,3.37-6.9h12.06c-.14,3.55-1.25,6.86-3.32,9.93-2.07,3.07-4.88,5.51-8.43,7.3-3.55,1.79-7.38,2.69-11.48,2.69-7.97,0-14.29-2.58-18.97-7.74-4.67-5.16-7.01-12.29-7.01-21.39v-1.32c0-8.67,2.32-15.62,6.95-20.83,4.64-5.22,10.96-7.82,18.97-7.82,6.78,0,12.3,1.98,16.57,5.93s6.51,9.14,6.72,15.57h-12.06c-.14-3.27-1.26-5.95-3.35-8.06-2.09-2.11-4.75-3.16-7.98-3.16-4.14,0-7.34,1.5-9.59,4.5-2.25,3-3.39,7.56-3.42,13.67v2.05c0,6.18,1.11,10.79,3.35,13.83,2.23,3.04,5.45,4.56,9.67,4.56Z"/>
    <path class="cls-1" d="M607.92,118.84h-12.8V37.93h12.8v80.92Z"/>
  </g>
  <path class="cls-4" d="M551.77,61.2h-63.82c-13.64,0-24.8,11.16-24.8,24.8v11.72c0,13.64,11.16,24.8,24.8,24.8h63.82c13.64,0,24.8-11.16,24.8-24.8v-11.72c0-13.64-11.16-24.8-24.8-24.8ZM562.83,93.34c0,11.39-9.32,20.71-20.71,20.71h-44.52c-11.39,0-20.71-9.32-20.71-20.71v-2.97c0-11.39,9.32-20.71,20.71-20.71h44.52c11.39,0,20.71,9.32,20.71,20.71v2.97Z"/>
  <path class="cls-3" d="M286.75,133.6l-150.95,58.16c-16.65,6.41-35.39-1.47-42.45-17.86L33.41,34.72c-1.47-3.42.89-7.26,4.6-7.5l218.05-13.85c5.68-.36,10.81,3.36,12.24,8.86l25.42,97.8c1.47,5.64-1.53,11.48-6.97,13.57Z"/>
  <text class="cls-2" transform="translate(105.58 129.93)"><tspan x="0" y="0">VR</tspan></text>
</svg>