<?xml version="1.0" encoding="UTF-8"?>
<svg id="Camada_1" xmlns="http://www.w3.org/2000/svg" viewBox="0 0 640.88 207.34">
  <defs>
    <style>
      .cls-1 {
        font-family: Roboto-Medium, Roboto;
        font-size: 107.89px;
        font-weight: 500;
      }

      .cls-1, .cls-2 {
        fill: #fff;
      }
    </style>
  </defs>
  <text class="cls-1" transform="translate(310 118.84)"><tspan x="0" y="0" xml:space="preserve">isc     l</tspan></text>
  <path class="cls-2" d="M548.08,61.2h-63.82c-13.64,0-24.8,11.16-24.8,24.8v11.72c0,13.64,11.16,24.8,24.8,24.8h63.82c13.64,0,24.8-11.16,24.8-24.8v-11.72c0-13.64-11.16-24.8-24.8-24.8ZM559.14,93.34c0,11.39-9.32,20.71-20.71,20.71h-44.52c-11.39,0-20.71-9.32-20.71-20.71v-2.97c0-11.39,9.32-20.71,20.71-20.71h44.52c11.39,0,20.71,9.32,20.71,20.71v2.97Z"/>
  <g>
    <path class="cls-2" d="M216.32,60.88h-13.72v24.88h13.78c4.29,0,7.61-1.09,9.96-3.27,2.35-2.18,3.53-5.19,3.53-9.02s-1.11-6.98-3.33-9.22-5.63-3.36-10.22-3.36Z"/>
    <path class="cls-2" d="M290.03,120.03l-25.42-97.8c-1.43-5.5-6.56-9.22-12.24-8.86L34.32,27.22c-3.71.24-6.07,4.08-4.6,7.5l59.95,139.19c7.06,16.39,25.8,24.27,42.45,17.86l150.95-58.16c5.44-2.09,8.44-7.94,6.97-13.57ZM148.86,129.93h-17.82l-28.75-82.88h18.96l18.67,62.33,18.79-62.33h19.01l-28.86,82.88ZM250.07,129.93h-18.33l-15.54-30.34h-13.61v30.34h-17.08V47.04h30.8c9.79,0,17.34,2.18,22.66,6.55,5.31,4.36,7.97,10.53,7.97,18.5,0,5.66-1.22,10.37-3.67,14.15-2.45,3.78-6.16,6.78-11.13,9.02l17.93,33.87v.8Z"/>
  </g>
</svg>